/* XPM */
static char *_04720b9bba5451bd3020f4576429a1aowu1I6WlI1zgFpMk[] = {
/* columns rows colors chars-per-pixel */
"36 64 141 2 ",
"   c black",
".  c #000100",
"X  c #010101",
"o  c #020000",
"O  c #000200",
"+  c #010200",
"@  c #000201",
"#  c #000301",
"$  c #020300",
"%  c #000002",
"&  c #010103",
"*  c #010302",
"=  c #020202",
"-  c gray1",
";  c #010400",
":  c #000500",
">  c #000401",
",  c #030401",
"<  c #020501",
"1  c #000600",
"2  c #000700",
"3  c #000402",
"4  c #000502",
"5  c #030603",
"6  c #050503",
"7  c gray2",
"8  c #070504",
"9  c #060405",
"0  c #040704",
"q  c #060604",
"w  c #060606",
"e  c #070707",
"r  c #080000",
"t  c #080101",
"y  c #0F0506",
"u  c #010904",
"i  c #000A04",
"p  c #020A05",
"a  c #050805",
"s  c #080906",
"d  c #0A0806",
"f  c #080B07",
"g  c #0A0708",
"h  c #060D08",
"j  c #070E0A",
"k  c gray3",
"l  c #090909",
"z  c #0A0B08",
"x  c gray4",
"c  c #0F0808",
"v  c #0D0B0A",
"b  c #0F0A0A",
"n  c #090C08",
"m  c #0A0D0A",
"M  c #0B0E0B",
"N  c #0C0C0A",
"B  c #0D0D0B",
"V  c #0C0C0C",
"C  c gray5",
"Z  c #0C0F0C",
"A  c #0E0E0E",
"S  c gray6",
"D  c #190408",
"F  c #12090A",
"G  c #130A0B",
"H  c #100C0B",
"J  c #160A0C",
"K  c #100D0E",
"L  c #110E0F",
"P  c #130F0E",
"I  c #1A0A0D",
"U  c #0E100D",
"Y  c #0F120E",
"T  c #12100E",
"R  c #13110F",
"E  c #10130F",
"W  c #101010",
"Q  c #111111",
"!  c #131313",
"~  c #171111",
"^  c #151312",
"/  c #111411",
"(  c #131613",
")  c gray8",
"_  c #151515",
"`  c #171415",
"'  c #151714",
"]  c #151716",
"[  c #161616",
"{  c gray9",
"}  c #191514",
"|  c #181516",
" . c #1C1716",
".. c #161815",
"X. c #171918",
"o. c #181818",
"O. c #1B191A",
"+. c gray10",
"@. c #1B1B1B",
"#. c #1E1A19",
"$. c #191C1B",
"%. c #1D1D1B",
"&. c #1E1E1E",
"*. c gray12",
"=. c #220F13",
"-. c #201516",
";. c #201919",
":. c #211D1C",
">. c #31151C",
",. c #30161C",
"<. c #232120",
"1. c #2C2223",
"2. c #292728",
"3. c #39262A",
"4. c #333632",
"5. c #373534",
"6. c #3A3A3A",
"7. c #422A30",
"8. c #412E32",
"9. c #4A3439",
"0. c #46383B",
"q. c #4D3F42",
"w. c #494343",
"e. c #4D4D4B",
"r. c #5E5455",
"t. c #5A5A5A",
"y. c #5D5858",
"u. c #626262",
"i. c #6E6767",
"p. c #726668",
"a. c #827175",
"s. c #9E9898",
"d. c #ACADAA",
"f. c #BEB7B7",
"g. c #BFBAB9",
"h. c #C5C3C2",
"j. c #CDC8C7",
"k. c #CCCAC9",
"l. c #D2CBCB",
"z. c #DACED0",
"x. c #DCDAD9",
/* pixels */
"                                                  / < <         - -     ",
"                                                  / < <         - -     ",
"                                                  / < <         - -     ",
"                                                  / < <         - -     ",
"                                                  / < <                 ",
"                                                  / <     <             ",
"                                                  / <   < < < <         ",
"                                                  ~ t 7 < < < <         ",
"                                                D 7.I c 6 < < <         ",
"                                              t >.>.=.F s u < <         ",
"                                    < < < 7 s y 8.9.3.J c j u <         ",
"                                    < < a z H F 0.a.q.-.R Z j u         ",
"                                    < < s N <.:.r.z.p.1. .~ U n         ",
"                                < < 7 a n n %.5.s.l.f.w.;.} R N         ",
"                              7 a s n n / n R e.k.g.j.i.;.} P c         ",
"                            7 7 n U U R ' / ..4.d.x.h.y.#.} P c         ",
"                          - - Z ! ' ' ' ' ' X.' 6.u.t.2.+.' P g         ",
"                          - z ! ' ' ' ' ' ' ' +.*.o.' +.} P g 9         ",
"                            Z ' ' ' ' ' ' ' ' ! ! @.*.' Z z             ",
"                          z ! ' ' ' ' ' ! ! ! !   z ! ! z               ",
"                          z Z z S +.+.Z Z Z Z z                         ",
"                        z     7 7 z z   7 z z 7                         ",
"                        z     7   z z     g 7 7                         ",
"                          z z   z ! ! z g z z e                         ",
"                          7 ! ' Z ! ! Z Z Z z 7                         ",
"                          7 Z Z ! Z Z Z Z z 7 7                         ",
"                            7 7 z z z z 7 7                             ",
"                                    - 9                                 ",
"                                                                        ",
"                                          7                             ",
"                                          7                             ",
"                            9             7                             ",
"                              z         z 7                             ",
"                            7 7 7       z 7                             ",
"                            7 z z g g z z 7 9                           ",
"                            7 z Z Z Z V Z z -                           ",
"                          e z Z Z Z Z W Z z 7                           ",
"                          e z Z Z ! W W Z Z 7                           ",
"                        - e z Z Z ! ! ! S Z e                           ",
"                        - 7 z Z Z ! ! ! S z 7                           ",
"                        7 7 7 7 z z z z g g 7 7                         ",
"                        7 7 7 7 z z z z g 7 7 7                         ",
"                        7 7 7 7 z z z z 7 7 7 7                         ",
"                          7 7 7 7 z z z 7 7 7   7                       ",
"                            7 7 7 7 7 7 7 7 7 7                         ",
"                                    7 7 7                               ",
"                                                                        ",
"                                                                        ",
"                                                                        ",
"                                                                        ",
"                                                                        ",
"                                                                        ",
"                                                                        ",
"                                                                        ",
"                                                                        ",
"                                                                        ",
"                                                                        ",
"                                                                        ",
"                                                                        ",
"                                                                        ",
"                                                                        ",
"                                                                        ",
"                                                                        ",
"                                                                        "
};
