/* XPM */
static char *_cc49078505d44cd804e075ddefaa49aa7E7rv3cQwjWJ5kF[] = {
/* columns rows colors chars-per-pixel */
"64 64 162 2 ",
"   c #030303",
".  c #0B0B0B",
"X  c #131313",
"o  c #1A1A1A",
"O  c #242424",
"+  c #2B2B2B",
"@  c #323232",
"#  c #3A3A3A",
"$  c #444444",
"%  c #4E4E4E",
"&  c #5C5C5C",
"*  c gray33",
"=  c #626262",
"-  c #6B6B6B",
";  c #727272",
":  c #7C7C7C",
">  c gray52",
",  c #8E8E8E",
"<  c gray62",
"1  c #AEAEAE",
"2  c gray64",
"3  c #B5B5B5",
"4  c #BCBCBC",
"5  c #C2C2C2",
"6  c #CBCBCB",
"7  c #D3D3D3",
"8  c #DCD3D6",
"9  c #DED5D8",
"0  c #DDDCDC",
"q  c #E0D6DA",
"w  c #E2DBDE",
"e  c #E4DEE0",
"r  c #E9DEE2",
"t  c #E5E4E4",
"y  c #E9E5E6",
"u  c #EAE7E8",
"i  c #E7ECEB",
"p  c #ECECEC",
"a  c #F0E6EA",
"s  c #F1ECEE",
"d  c #E7F0EF",
"f  c #ECF0EF",
"g  c #E6EFF0",
"h  c #EAEFF3",
"j  c #F3EFF0",
"k  c #E7F1F2",
"l  c #EBF2F4",
"z  c #EDF3F8",
"x  c gray96",
"c  c #F4F6F5",
"v  c #F7F7F5",
"b  c #F5F7F6",
"n  c #F6F6F6",
"m  c #F3F3F3",
"M  c #F8F5F6",
"N  c #F7F8F3",
"B  c #F4F9F5",
"V  c #F6F8F5",
"C  c #F4F8F7",
"Z  c #F6F8F7",
"A  c #F8F9F3",
"S  c #F8F9F4",
"D  c #FAF9F4",
"F  c #F9FAF4",
"G  c #F9FAF5",
"H  c #FBFAF5",
"J  c #FAFBF5",
"K  c #F8F8F6",
"L  c #F9F9F7",
"P  c #F8FAF7",
"I  c #FAFBF6",
"U  c #FCFBF6",
"Y  c #FBFCF6",
"T  c #FAFCF7",
"R  c #FBFCF7",
"E  c #FDFCF7",
"W  c #FCFDF7",
"Q  c #FFFCF7",
"!  c #F0F5FB",
"~  c #F3F6FB",
"^  c #F6F7F9",
"/  c #F2F7FD",
"(  c #F9F7F8",
")  c #F3F9F9",
"_  c #F2F8F8",
"`  c #F7F9F8",
"'  c #F6FAF9",
"]  c #F5F9FA",
"[  c #F4FAFA",
"{  c #F5FBFB",
"}  c #F7FBFA",
"|  c #F7FCF8",
" . c #F3F8FE",
".. c #F7FBFC",
"X. c #F7FAFF",
"o. c #F6FBFF",
"O. c #F7F9F8",
"+. c #F8F8F8",
"@. c #F9F9F9",
"#. c #F9FBF8",
"$. c #F8FAF9",
"%. c #FAFAF8",
"&. c #FBFBF9",
"*. c #F9FBFA",
"=. c gray98",
"-. c #FBFBFB",
";. c #FFFBF8",
":. c #F8FCFB",
">. c #FBFDFA",
",. c #FAFCFB",
"<. c #F9FEFA",
"1. c #FAFFFB",
"2. c #FDFCF8",
"3. c #FCFDF8",
"4. c #FFFCF8",
"5. c #FEFDF8",
"6. c #FFFDF8",
"7. c #FFFCF9",
"8. c #FFFDF9",
"9. c #FDFEF8",
"0. c #FDFEF9",
"q. c #FFFEF9",
"w. c #FEFFF9",
"e. c #FCFCFA",
"r. c #FDFCFA",
"t. c #FDFDFB",
"y. c #FFFDFA",
"u. c #FFFCFB",
"i. c #FEFDFB",
"p. c #FCFEFB",
"a. c #FFFEFA",
"s. c #FEFFFA",
"d. c #FFFFFA",
"f. c #FFFFFB",
"g. c #F9FAFC",
"h. c #F9FDFC",
"j. c #FBFDFC",
"k. c #FBFFFC",
"l. c #FAFEFD",
"z. c #F9FDFE",
"x. c #F8FDFF",
"c. c #FAFDFF",
"v. c #FBFFFE",
"b. c #FBFFFF",
"n. c gray99",
"m. c #FDFDFD",
"M. c #FFFDFC",
"N. c #FDFFFC",
"B. c #FCFEFD",
"V. c #FCFFFD",
"C. c #FEFEFC",
"Z. c #FFFEFC",
"A. c #FEFFFD",
"S. c #FFFFFD",
"D. c #FCFDFF",
"F. c #FDFFFE",
"G. c #FCFFFF",
"H. c #FEFEFE",
"J. c #FFFEFF",
"K. c #FEFFFF",
"L. c white",
"P. c #FFFEFF",
/* pixels */
"J.J.J.J.J.J.J.J.{ _ l l l l l z z z z z z z h h z z z z z  .b.J.J.J.J.J.J.J.J.J.J.e.e.e.e.e.e.e.e.e.E K K K *.,.J.J.J.J.J.J.J.J.",
"J.J.J.J.J.J.J.J.{ _ l l l l l z z z z l z z h h z z z z z / o.b.J.J.J.J.J.J.J.J.J.J.e.e.e.e.e.e.e.e.E K K K *.,.J.J.J.J.J.J.J.J.",
"J.J.J.J.J.J.J.J.{ l l l l l l l z z z z z z z z z h l l z ~  .o.J.J.J.J.J.J.J.J.e.e.e.e.e.e.e.e.e.e.E K A K *.*.J.J.J.J.J.J.J.J.",
"J.J.J.J.J.J.J.J.{ l l l l l l l z z z z z z h z h h h h l z ~ ~ J.J.J.J.J.J.e.e.e.e.e.e.e.e.E E e.E R K A K *.,.J.J.J.J.J.J.J.J.",
"J.J.J.J.J.J.J.b.[ l k l l l l l z z z z z k k h h h h h h z z _ *.J.J.J.J.*.e.e.e.e.e.e.e.e.E E e.R K N N A K *.J.J.J.J.J.J.J.J.",
"J.J.J.J.J.J.J.b.[ l k l l k l l z z z z z k k k h h h h h l z z ^ ,.J.J.J.*.e.J.e.e.-.-.-.-.E E E R K A N A K e.J.J.J.J.J.J.J.J.",
"J.J.J.J.J.J.J.b.[ l l l l k l l z z z z z k k k h h h h l l z z m *.J.J.b.*.e.J.e.e.e.e.-.U E E U K K N N K K e.J.J.J.J.J.J.J.J.",
"J.J.J.J.J.J.J.J.[ l l l l k l l z z z z z k k k l l h l l l l k l Z J.J.,.*.e.J.e.e.e.e.-.U E E R K K x N K *.e.J.J.J.J.J.J.J.J.",
"J.J.J.J.J.J.J.b.[ l l l l l l l z l z z z z l l h h h h k z z z p l [ ,.b.b.e.J.e.e.e.e.e.e.e.e.A A N N A K *.e.J.J.J.J.J.J.J.J.",
"J.J.J.J.J.J.J.b.[ l k l l l l l z l z z z z z z h h h h h h h l p l Z ,.b.b.e.J.e.J.e.e.e.e.e.e.K A N N A K *.e.J.J.J.J.J.J.J.J.",
"J.J.J.J.J.J.J.J.[ l k l l k l l h d p p k k l l k k k p p p p k f l c Z ,.b.e.,.J.J.e.e.e.e.E U K A N N A K e.e.J.J.J.J.J.J.J.J.",
"J.J.J.J.J.J.J.J.[ l k l l k k l k k p p p p k l l l k k k p k k p p p c [ b.J.,.J.J.e.e.e.E K K K A K K K R e.J.J.J.J.J.J.J.J.J.",
"J.J.J.J.J.J.J.J.[ l g k l k k k l l l l k k k l l k k p p p p p p i i l Z b.J.,.e.e.e.e.e.R K A A A K K K R e.J.J.J.J.J.J.J.J.J.",
"J.J.J.J.J.J.J.J._ k g k k k k k h k k k k k p p p p i i i i i i i i i d c [ ,.,.e.e.e.e.R K K A A A K K K e.J.J.J.J.J.J.J.J.J.J.",
"J.J.J.J.J.J.J.J._ k g k k g g k i p d l l l k k p p p p p d k k d d d d f l Z { ,.R R R R K K K A A K K K e.J.J.J.J.J.J.J.J.J.J.",
"J.J.J.J.J.J.J.J._ k i d k g g k p l _ [ b.b...[ l l l l l l _ _ l l l f p p c Z K K ,.R *.R K K K K K K K e.J.J.J.J.J.J.J.J.J.J.",
"J.J.J.J.b.b.b.b._ d i p p i i i i J.J.Z ,.J.J.J.,.,.*.*.[ Z b b [ [ [ [ [ [ *.*.J.J.J.K J.J.x *.K e.K b J.*.*.J.J.J.J.J.J.J.J.J.",
"b.b.b.b.b.b.b.b._ d i i p i i p J.0 5 3 4 4 1 3 3 3 3 3 3 3 3 3 1 1 1 1 1 1 1 1 3 1 3 4 3 1 5 J.*.J.*.*.J.J.*.J.J.J.J.J.J.J.J.J.",
"J.J.J.J.b.b.b.b._ f p p p i i p p - o . . . . X . . . . . . . . . . . . . . . . X   . X .   o ; m J.J.*.J.J.*.J.J.J.J.J.J.J.J.J.",
"b.b.J.J.b.b.J.J._ p i i p i p p 6 +     .       . . . . . . . . . . . . . . . . . . X .     . + p *.J.*.J.J.*.J.J.J.J.J.J.J.J.J.",
"b.b.b.b.J.J.J.J._ d i i p i p f 4 X   X X X o . . . . . . . . . . . . . . . . .   . X   . X   . i *.J.*.J.J.*.J.J.J.J.J.J.J.J.J.",
"b.b.J.b.J.J.J.J._ p i i p i p f 6 o .       .   . . . . . . . . X X X X X X X X X . X . X X . O y *.J.*.J.J.J.J.J.J.J.J.J.J.J.J.",
"J.J.J.J.J.J.J.J.b p i i i i p m 4 X X X o X X . . . . . . . . . . . . . . . . . X   .         O t b *.b *.J.*.*.J.J.J.J.J.J.J.J.",
"J.J.J.J.J.J.J.J.b p u i i p p m 6 X .   .   . X . . . . . . .   . . . . . . . . . . . . X X . o 0 m b m m b b b J.J.J.J.J.J.J.J.",
"J.J.J.J.J.J.J.J.[ m f m m l m c 5 o . . . . . . .   . X X 2 < O . . . . . . . . . . . . X . . o 0 p b m m p m *.J.J.J.J.J.J.J.J.",
"J.J.J.J.J.J.J.J.[ m f l m l m c 5 o . . . . . . . X X . + p t # . . . . . . . . . . . . X . . o 0 p b m m p m *.J.J.J.J.J.J.J.J.",
"J.J.J.J.J.J.J.J.*.m p m m m m m 5 o . . . . . .   . .   O J.p +   . . . . . . . . . . . X . . o 0 p b p j p m *.J.J.J.J.J.J.J.J.",
"J.J.J.J.J.J.J.J.b m p m m j j m 5 o . . . . . . . . . . + i 0 @   . . . . . . . . . . . X . . o 0 p m p p p p *.J.J.J.J.J.J.J.J.",
"J.J.J.J.J.J.J.J.b m p p m p m m 5 o . . . . . . X . . X + y 0 # . . . . . . . . . . . . X . . o 0 p m p p p p *.J.J.J.J.J.J.J.J.",
"J.J.J.J.J.J.J.J.b m p p m p p m 5 o . . . . . . . .     + p 0 + . . . . . . . . . . . . X . . o 0 p b p p p p *.J.J.J.J.J.J.J.J.",
"J.J.J.J.J.J.J.J.b m p p m p p m 5 o . . . . . . X X .   + m t + . . . . . . . . . . . . X . . o 0 p m p p p p b J.J.J.J.J.J.J.J.",
"J.J.J.J.J.J.J.J.b m p p m p p m 5 o . . . . . . . . . . + y 0 # . . . . . . . . . . . . X . . o 0 p m p p p p ( J.J.J.J.J.J.J.J.",
"J.J.J.J.J.J.J.J.b p p p p p p m 4 o . . . . . . .   X   O i 7 #   X . . X .   . . . . . . . o X 0 m m i p p i *.J.J.J.J.J.J.J.J.",
"J.J.J.J.J.J.J.J.b p i p p p p m 4 o . . . . . . . . X . # p t + . . .     . X . X .   . .   X O 0 s m i p i i ( J.J.J.J.J.J.J.J.",
"J.J.J.J.J.J.J.J.b p i p p p p m 4 o   . . . . . . .     O 0 p +     X o   . o     . . X . . . o 0 p p i p i i ( J.J.J.J.J.J.J.J.",
"J.J.J.J.J.J.J.J.b p i p p p p m 4 o . . . . . . . o . X + t 7 O X                 X X . . X   X 0 p p i p p i *.J.J.J.J.J.J.J.J.",
"J.J.J.J.J.J.J.J.b p i i p p p m 4 o . . . . . .       X o p y > - - = - : $ X o X .       X   o 7 p p i p p i *.J.J.J.J.J.J.J.J.",
"J.J.J.J.J.J.J.J.b p i i p p p m 4 o . . . . . . o X   X O y b m b J.*.J.m > .   .   X +   .   O 7 i p y p i i Z J.J.J.J.J.J.J.J.",
"J.J.J.J.J.J.J.J.b p i i p i p m 4 o . . . . . .   .   . X = = - * = & = - # . .   O - - . .   o 6 y i t i y t c J.J.J.J.J.J.J.J.",
"J.J.J.J.J.J.J.J.b p i i p i p m 4 o . . . . . . . X . . .                     . X & 4 ,   X . o 6 t y 0 y t t m J.J.J.J.J.J.J.J.",
"J.J.J.J.J.J.J.J.b p i i i i i p 4 X X   X . X . . . . . . . . . . . . . . . . . . . % >     . o 7 t i t t t y f J.J.J.J.J.J.J.J.",
"J.J.J.J.J.J.J.J.b p u i i i i p 5 X .   X . .   . . . . . . . . . . . . . . . . X   $ >   . X X 6 t y 0 e t y p J.J.J.J.J.J.J.J.",
"J.J.J.J.J.J.J.J.b p u i p i i p 4 .   . .   X o . . . . . . . . . . . . . . . .   . & >     X O 7 e t 0 t t y f J.J.J.J.J.J.J.J.",
"J.J.J.J.J.J.J.J.b p u u p i i p 4 X X O o   . . . . . . . . . . . . . . . . . . . . + $   X . . 7 t t t t t y m J.J.J.J.J.J.J.J.",
"J.J.J.J.J.J.J.J.b p y u i i i p 6 O       . .   . . . . . . . . . . . . . . . .   X   X   X   @ 7 t t t y t y m J.J.J.J.J.J.J.J.",
"J.J.J.J.J.J.J.J.b p y u i i i p *.: @ X X X X o X X X X X X X X X X X X X X X X X o X o X . X : 0 t t t y t t m J.J.J.J.J.J.J.J.",
"J.J.J.J.J.J.J.J.m i y u i i i i p 0 7 6 6 6 5 6 6 6 6 6 6 5 5 5 5 5 5 5 5 5 5 5 7 5 3 5 6 6 6 J.t y t t i t y m J.J.J.J.J.J.J.J.",
"J.J.J.J.J.J.J.J.m p u u u u u p t b j y p m y m p p p i u y y t y y y y y y y y 0 0 p i 7 p y 0 i p i i p y i b J.J.J.J.J.J.J.J.",
"J.J.J.J.J.J.J.J.M u y u y y a y u u u u u u u u u u u t r e w 0 w 0 0 0 0 0 0 e 0 0 t y i i u u p p i i u t i m J.J.J.J.J.J.J.J.",
"J.J.J.J.J.J.J.J.M y y u r y a y u u u u u u u u u y t t w w w 0 e w w 0 0 w e t 0 e t u i i u u p u i p u u p m J.J.J.J.J.J.J.J.",
"J.J.J.J.J.J.J.J.m y y y r r a y y u u u u u y y y y t w w w w 0 w w 0 0 0 0 w w t t y u i i i u u u i p p u p m J.J.J.J.J.J.J.J.",
"J.J.J.J.J.J.J.J.m u y y r y a y y y y t t u y y u u t t r r w w w 0 0 0 0 0 0 w y u u i i i u u u u i p i u p m J.J.J.J.J.J.J.J.",
"J.J.J.J.J.J.J.J.m u y y r y a y y t t t t y u u p p u u u y y y t t t t t t t t u u i i i u u u u u i i u t p m J.J.J.J.J.J.J.J.",
"J.J.J.J.J.J.J.J.j y r y r r y t t t t t t u u p s p p u p u u u u u y y y y u u u u u u u u u u p u u u u y p m J.J.J.J.J.J.J.J.",
"J.J.J.J.J.J.J.J.s r r r w r y r t t t t y u p s p p p p u u u u i i u y u u i i u y y y y y u u p u u u u i m n.J.J.J.J.J.J.J.J.",
"J.J.J.J.J.J.J.J.s w w r w w r w t t t t u p s s p p u u u u u u y y y y y y u u y y y y y y u u u u u i i p ( J.J.J.J.J.J.J.J.J.",
"J.J.J.J.J.J.J.J.m 9 w w q r q w w 0 w t p s s p p p u u u u u u y y y y y y y y u u u u u u u u t u y t p n.J.( J.J.J.J.J.J.J.J.",
"J.J.J.J.J.J.J.J.j 9 w w q w q w q 0 w y u p p p p p u u u u u u y y y y y y y y y y y y y y y y t y y u j -.n.( J.J.J.J.J.J.J.J.",
"J.J.J.J.J.J.J.J.j 9 w w q w q w 0 w t u u u p p u u u u u u u u y u y u y y y y y y y y y y y y y t u j b ( *.-.J.J.J.J.J.J.J.J.",
"J.J.J.J.J.J.J.J.j 8 w w q w q w 0 w u u u y u s u y u u u u u u y y y y y y y y y y y y y y y y y t i b *.m b n.J.J.J.J.J.J.J.J.",
"J.J.J.J.J.J.J.J.s 8 q q 9 w 9 w 0 t u u y t u p u u u u u u u u y y y y y y y y y y y y y y y y y y p *.-.m b J.J.J.J.J.J.J.J.J.",
"J.J.J.J.J.J.J.J.s 8 q q 9 w 8 q w t u u u t u p u u u u u u u u y y y y y y y y y y y y y y y y t i m -.*.m ( n.J.J.J.J.J.J.J.J.",
"J.J.J.J.J.J.J.J.s 8 q q 8 w 8 q r t u u u t u u u u u u u y u u y y y y y y y y y y y y y y y y t p ( ( b ( *.-.J.J.J.J.J.J.J.J.",
"J.J.J.J.J.J.J.J.s 8 9 9 8 w 8 q r t u u u u u u u u u u y y y u y y y y y y y y y y y y y y y y t m n.( m ( n.-.J.J.J.J.J.J.J.J."
};
