/* XPM */
static char *_76aedb988ee45b2ce5c5071c4d56b57WRpUWSVogqhRKs4i[] = {
/* columns rows colors chars-per-pixel */
"36 64 256 2 ",
"   c black",
".  c #010101",
"X  c #020202",
"o  c gray1",
"O  c #040404",
"+  c gray2",
"@  c #060606",
"#  c #070707",
"$  c gray3",
"%  c #090909",
"&  c gray4",
"*  c #0B0B0B",
"=  c #0C0C0C",
"-  c gray5",
";  c #0E0E0E",
":  c gray6",
">  c #101010",
",  c #111111",
"<  c gray7",
"1  c #131313",
"2  c gray8",
"3  c #151515",
"4  c #161616",
"5  c gray9",
"6  c #181818",
"7  c #191919",
"8  c gray10",
"9  c #1B1B1B",
"0  c gray11",
"q  c #1D1D1D",
"w  c #1E1E1E",
"e  c gray12",
"r  c #202020",
"t  c gray13",
"y  c #222222",
"u  c #232323",
"i  c gray14",
"p  c #252525",
"a  c gray15",
"s  c #272727",
"d  c #282828",
"f  c gray16",
"g  c #2A2A2A",
"h  c gray17",
"j  c #2C2C2C",
"k  c #2D2D2D",
"l  c gray18",
"z  c #2F2F2F",
"x  c gray19",
"c  c #313131",
"v  c #323232",
"b  c gray20",
"n  c #343434",
"m  c #353535",
"M  c gray21",
"N  c #373737",
"B  c gray22",
"V  c #393939",
"C  c #3A3A3A",
"Z  c gray23",
"A  c #3C3C3C",
"S  c gray24",
"D  c #3E3E3E",
"F  c #3F3F3F",
"G  c gray25",
"H  c #414141",
"J  c gray26",
"K  c #434343",
"L  c #444444",
"P  c gray27",
"I  c #464646",
"U  c gray28",
"Y  c #484848",
"T  c #494949",
"R  c gray29",
"E  c #4B4B4B",
"W  c #4C4C4C",
"Q  c gray30",
"!  c #4E4E4E",
"~  c gray31",
"^  c #505050",
"/  c #515151",
"(  c gray32",
")  c #535353",
"_  c gray33",
"`  c #555555",
"'  c #565656",
"]  c gray34",
"[  c #585858",
"{  c gray35",
"}  c #5A5A5A",
"|  c #5B5B5B",
" . c gray36",
".. c #5D5D5D",
"X. c gray37",
"o. c #5F5F5F",
"O. c #606060",
"+. c gray38",
"@. c #626262",
"#. c gray39",
"$. c #646464",
"%. c #656565",
"&. c gray40",
"*. c #676767",
"=. c #686868",
"-. c DimGray",
";. c #6A6A6A",
":. c gray42",
">. c #6C6C6C",
",. c #6D6D6D",
"<. c gray43",
"1. c #6F6F6F",
"2. c gray44",
"3. c #717171",
"4. c #727272",
"5. c gray45",
"6. c #747474",
"7. c gray46",
"8. c #767676",
"9. c #777777",
"0. c gray47",
"q. c #797979",
"w. c gray48",
"e. c #7B7B7B",
"r. c #7C7C7C",
"t. c gray49",
"y. c #7E7E7E",
"u. c gray50",
"i. c #808080",
"p. c #818181",
"a. c gray51",
"s. c #838383",
"d. c #848484",
"f. c gray52",
"g. c #868686",
"h. c gray53",
"j. c #888888",
"k. c #898989",
"l. c gray54",
"z. c #8B8B8B",
"x. c gray55",
"c. c #8D8D8D",
"v. c #8E8E8E",
"b. c gray56",
"n. c #909090",
"m. c gray57",
"M. c #929292",
"N. c #939393",
"B. c gray58",
"V. c #959595",
"C. c gray59",
"Z. c #979797",
"A. c #989898",
"S. c gray60",
"D. c #9A9A9A",
"F. c #9B9B9B",
"G. c gray61",
"H. c #9D9D9D",
"J. c gray62",
"K. c #9F9F9F",
"L. c #A0A0A0",
"P. c gray63",
"I. c #A2A2A2",
"U. c gray64",
"Y. c #A4A4A4",
"T. c #A5A5A5",
"R. c gray65",
"E. c #A7A7A7",
"W. c gray66",
"Q. c #A9A9A9",
"!. c #AAAAAA",
"~. c gray67",
"^. c #ACACAC",
"/. c gray68",
"(. c #AEAEAE",
"). c #AFAFAF",
"_. c gray69",
"`. c #B1B1B1",
"'. c #B2B2B2",
"]. c gray70",
"[. c #B4B4B4",
"{. c gray71",
"}. c #B6B6B6",
"|. c #B7B7B7",
" X c gray72",
".X c #B9B9B9",
"XX c gray73",
"oX c #BBBBBB",
"OX c #BCBCBC",
"+X c gray74",
"@X c gray",
"#X c gray75",
"$X c #C0C0C0",
"%X c #C1C1C1",
"&X c gray76",
"*X c #C3C3C3",
"=X c gray77",
"-X c #C5C5C5",
";X c #C6C6C6",
":X c gray78",
">X c #C8C8C8",
",X c gray79",
"<X c #CACACA",
"1X c #CBCBCB",
"2X c gray80",
"3X c #CDCDCD",
"4X c #CECECE",
"5X c gray81",
"6X c #D0D0D0",
"7X c gray82",
"8X c #D2D2D2",
"9X c LightGray",
"0X c gray83",
"qX c #D5D5D5",
"wX c gray84",
"eX c #D7D7D7",
"rX c #D8D8D8",
"tX c gray85",
"yX c #DADADA",
"uX c gray86",
"iX c gainsboro",
"pX c #DDDDDD",
"aX c gray87",
"sX c #DFDFDF",
"dX c gray88",
"fX c #E1E1E1",
"gX c #E2E2E2",
"hX c gray89",
"jX c #E4E4E4",
"kX c gray90",
"lX c #E6E6E6",
"zX c #E7E7E7",
"xX c gray91",
"cX c #E9E9E9",
"vX c #EAEAEA",
"bX c gray92",
"nX c #ECECEC",
"mX c gray93",
"MX c #EEEEEE",
"NX c #EFEFEF",
"BX c gray94",
"VX c #F1F1F1",
"CX c gray95",
"ZX c #F3F3F3",
"AX c #F4F4F4",
"SX c gray96",
"DX c #F6F6F6",
"FX c gray97",
"GX c #F8F8F8",
"HX c #F9F9F9",
"JX c gray98",
"KX c #FBFBFB",
"LX c gray99",
"PX c #FDFDFD",
"IX c #FEFEFE",
"UX c white",
/* pixels */
"              .                     . .                                 ",
"                            . . . .             .       . .             ",
"                          . . . . . . . . X X . .                       ",
"                    X X o X X . X o O o O + O o X .                     ",
". . . . . . . . . . . . X o + + $ % # O X o O O O o X X X X X .         ",
"X . . . . . . . o X     X @ * ; 2 1 : # X X O O + O o X X X X .         ",
"X . . . . . . . o X . o # - 1 5 q e 0 1 & # @ + + O X . . . .           ",
". . . . . . .   X o + $ ; 2 7 0 t s d r 4 ; & @ @ + o X X X X .         ",
"X X . .   . X o o # = ; < 8 w 8 y g f p w 5 3 ; & $ # + . . X         . ",
"X X X . . . o O $ * - : 1 7 9 0 u h h f i e 0 3 , = % @ X o o .   . . X ",
"X X X X . X o + + % * , 8 w u j v B M b l d p q 6 , * # O o O .       . ",
". X X X . X O @ * > > 1 9 9 r l S J D C N b c f q 4 , = @ o o           ",
"  . X X . X O @ & , < 2 8 8 e l P T L F V m n l r 0 7 3 = + o . . . . . ",
"  . X X . X + # # : 2 6 t d l N J T Y K S B B b i y y e 3 & + X . . .   ",
"  . X X X o + $ ; 2 7 q a c m n m J Y T L F F C f a s a 0 > $ o . .     ",
"  . o o X o @ % : 1 6 0 a n M h m P ! ~ I A B c h d f f r 1 & O X X . . ",
".   . o o o # = 1 4 0 q b z i l c B P ^ ~ L C M N c z p w 2 @ & o X . X ",
"  . o o O # = : 8 < 8 y v k f n c b D Q ( R J G D l l g q 7 < X + o X X ",
"  . X X O & : , > w j s g h s u l c S W Q K S H F b s d p 9 1 - + o X X ",
"    . o @ * > 1 5 j a q k d e c S S J Y P C b b M J V v k t 4 & @ o . . ",
"X . . @ % = : 1 u 9 t g d c m i 7 1 3 a S Y H m x x Z I c 6 < @ $ + X . ",
". . X @ & = - ; 1 a a g x j 5 +   o X   . < f V M c m C s - & ; - $ o X ",
"  O @ @ & : ; % 9 t 9 u 8 $     X X X . o @ % & a S G f 9 4 : : : % O X ",
"  % = $ = 3 1 % 8 7 ; : . . $ $ # & ; ; $ o o @   ; n C p 7 1 2 ; % O X ",
"O $ ; * - 6 7 2 % < * + O & , @ - 1 2 , : 6 & % + . o M S 0 0 5 - * @ X ",
"@ & - = = 3 r y r : O X . X * 5 > t 2 4 7 & @   . X   & S Z 3 5 < : % o ",
"@ - = - & : t a -   X O . . . : 5 9 9 0 $     o O   @   q D y 4 6 1 * + ",
"+ : - > * * 7 3 O   X X   . + > % e e 3   @   X   O #   $ j d w 0 3 - # ",
"O : - , : - , X # @   O O   X @ : ] F > %     .   . *   . w z e e 4 = % ",
"@ = = 1 3 1 :   8 w @   X # : : f ) / 9 7 o   X . & f .   - f s y 3 & @ ",
"$ $ - 4 7 2 *   5 h r > 7 q 5 6 a - d r s d 5 % 1 x Z X O o > N h 8 & + ",
"& + ; 8 9 < +   * 0 q , 5 > + q 9   % 0 q N Z h B S z -   O , x m t ; $ ",
"% O - 4 8 2 o   = w 5 - @ $ = u 2 . . l 2 2 < q 6 y 5 #   X @ t v t - % ",
"$ @ - 3 8 1 X     & $ @ # % , i & @   d d 9 $ < 6 q < # .     2 z u : $ ",
"# % - 1 8 ,   .   . X o % * 4 u ; 5 4 h r 1 - % o @ .     .   : d i < % ",
"+ * = < 8 ;   . o   .   $ = 8 e p e w x y : > O   o     X O   & e t , $ ",
"O * = < 6 *   X .   o   @ , t u e a s k k 9 3 # . + X     o   # e e ; + ",
"+ = = 2 4 $   . . O @   X = 6 6 t f x h y 1 =   . o       X   * p r - + ",
"# - ; 4 3 @ .     O O .     X o o . % $ # X   X - # X O   .   > p 0 = $ ",
"& : > 6 2 O X     + + $ X X   . O M m     %   # ; X   O .   . 3 q 1 $ % ",
"& : 2 1 , . X o .   # = X   +   l ;.n o .   O * % o O     o O - 3 - % # ",
"& > < 2 1 # o   O     & - < 2 + c W j   ; 1 5 ; + . .     o O : 0 > $ # ",
"& , < 5 2 & o   X . o % % : 3 % N Y h 0 t ; : $ X       o X O 2 u 1 # # ",
"$ , 1 q 4 * X o @ .   . @ > < O N W A & < 3 # $ .       o . % 0 u < @ @ ",
"+ - , t w , o . . .     O ; 3 = g H m 1 7 O @     .     X O 1 p 9 - + @ ",
"O % = q p 0 &     o O X   X - ; w H W d   @ O     .   . X * q s 1 & + + ",
"o $ % , u u 4 . O o       . o   + n T ` ;     #       X o > y w < = % # ",
"X & % # 9 i r %   X   X .   X .   y P T l O       .   o O 1 y 2 2 > = % ",
"+ + * % > 6 u 0 X         X   X   : D Q H d . .   . . o   8 9 2 1 , & = ",
"% # @ ; * , 3 q @ o + o         O O x c M J %   o   . O O e 6 0 < > = - ",
"* & # ; % $ & 6 2 o     . + o O X   l c A W , X .   O     d s 1 : = - & ",
"# & ; & ; + # ; , X + X o X . . + X q g L R i   O +   o % p t : 2 , 1 - ",
"O $ ; ; 2 & # & 5 @ o . o   +     o 2 0 G I V X   % . . < s 4 6 9 7 6 ; ",
"O @ $ 3 3 , $ = 4 * + X X   ; + @   % ; x B A 0 X   @ X @ k p d y t 8 ; ",
"O + # , > 2 > ; , : +   X > ^ X.G w 7 a H E ( P N >   $ O q g b p d 8 , ",
"O @ = @ = 2 7 - , -   . ; 4 Y F W J H _ ] ' } R >.(     & > t f q y < = ",
"X @ $ # $ - < 2 7 % +   c 8 p 1 4 s h Z ! R F +.U F *   = 7 7 8 e , * * ",
"O # % # @ $ ; 1 9 +   d n & w x v J E E U J P K / U 4 X w 4 3 3 = O + = ",
"@ $ & $ + + & , 5 $ 5 S < 1 v 5 p i y u n L ) Z U T 9 X s 2 : ; - $ % ; ",
"$ $ % % # + % ; < O 0 k . . p S A T E T _ ^ T L C ! t X t 3 - ; < < , : ",
"$ # # % $ # # & , + * > X $ e K n D D m V A z J n Y p   5 : : 6 = 2 2 - ",
"$ # @ # # @ @ @ : $ o 9 *   = D q < 2 0 M ` C k l x u   3 - 0 j 1 0 7 = ",
"& % $ + O O + + - <   o 2 & o m %     O i W A r g r u + < 1 r h 4 q 6 - ",
"= - & + X o + + % + % . * : O y i e 3 o 3 l x w p 9 t $ X > - = O - ; - "
};
