/* XPM */
static char *_36f7d587ad249e5ec16e5d94abaae23inIXcqyYjtoejCiM[] = {
/* columns rows colors chars-per-pixel */
"43 64 119 2 ",
"   c #000004",
".  c #010005",
"X  c #020106",
"o  c #030207",
"O  c #040308",
"+  c #050409",
"@  c #06050A",
"#  c #07060B",
"$  c #08070C",
"%  c #09080D",
"&  c #0A090E",
"*  c #0B0A0F",
"=  c #0C0B10",
"-  c #0D0C11",
";  c #0E0D12",
":  c #0F0E13",
">  c #100F14",
",  c #111015",
"<  c #121116",
"1  c #131217",
"2  c #141318",
"3  c #151419",
"4  c #16151A",
"5  c #17161B",
"6  c #18171C",
"7  c #19181D",
"8  c #1A191E",
"9  c #1B1A1F",
"0  c #1C1B20",
"q  c #1D1C21",
"w  c #1E1D22",
"e  c #1F1E23",
"r  c #201F24",
"t  c #212025",
"y  c #222126",
"u  c #232227",
"i  c #242328",
"p  c #252429",
"a  c #26252A",
"s  c #27262B",
"d  c #28272C",
"f  c #29282D",
"g  c #2A292E",
"h  c #2B2A2F",
"j  c #2C2B30",
"k  c #2D2C31",
"l  c #2E2D32",
"z  c #2F2E33",
"x  c #302F34",
"c  c #313035",
"v  c #333237",
"b  c #343338",
"n  c #353439",
"m  c #37363B",
"M  c #38373C",
"N  c #3A393E",
"B  c #3B3A3F",
"V  c #3E3D42",
"C  c #403F44",
"Z  c #414045",
"A  c #424146",
"S  c #434247",
"D  c #46454A",
"F  c #4A494E",
"G  c #4B4A4F",
"H  c #4C4B50",
"J  c #4D4C51",
"K  c #4E4D52",
"L  c #525156",
"P  c #535257",
"I  c #555459",
"U  c #56555A",
"Y  c #57565B",
"T  c #5A595E",
"R  c #5B5A5F",
"E  c #5E5D62",
"W  c #5F5E63",
"Q  c #636267",
"!  c #656469",
"~  c #66656A",
"^  c #68676C",
"/  c #69686D",
"(  c #6A696E",
")  c #6D6C71",
"_  c #6E6D72",
"`  c #6F6E73",
"'  c #706F74",
"]  c #717075",
"[  c #757479",
"{  c #76757A",
"}  c #78777C",
"|  c #79787D",
" . c #7A797E",
".. c #7B7A7F",
"X. c #7E7D82",
"o. c #86858A",
"O. c #87868B",
"+. c #89888D",
"@. c #8A898E",
"#. c #8D8C91",
"$. c #8E8D92",
"%. c #8F8E93",
"&. c #929196",
"*. c #959499",
"=. c #97969B",
"-. c #98979C",
";. c #9A999E",
":. c #9B9A9F",
">. c #9C9BA0",
",. c #9F9EA3",
"<. c #A3A2A7",
"1. c #A7A6AB",
"2. c #ACABB0",
"3. c #B0AFB4",
"4. c #B7B6BB",
"5. c #B9B8BD",
"6. c #BAB9BE",
"7. c #BBBABF",
"8. c #BCBBC0",
/* pixels */
"- - - - - - - - - - - - - - - - < - = = - - - = - - - - - - - - - - - - - - - - - - - ",
"- - - - - - - - - - - - - - - - < - = = - > - - - - - - - - - - - - - - - - - - - - - ",
"- - - - - - - - - - - - - - - - > - = - < < - - - - - - - - - - - - - - - - - - - - - ",
"- - - - - - - - - - - - - - - - - - - - < < > - - - - - - - - - - - - - - - - - - - - ",
"- - - - - - - - - - - - - - - - - - - > < 2 < - - - - - - - - - - - - - - - - - - - - ",
"- - - - - - - - - - - - - - - - - - - < 2 3 < - - - - - - - - - - - - - - - - - - - - ",
"- - - - - - - - - - - - - - - - = = - < 3 3 < - - - - - - - - - - - - - - - - - - - - ",
"- - - - - - - - - - - - - - - - = = - < 3 3 < - - - - - - - - - - - - - - - - - - - - ",
"- - - - - - - - - - - - - - - - - - - > 2 3 < < - - - - - - - - - - - - - - - - - - - ",
"- - - - - - - - - - - - - - - - - - - > 2 3 < < - - - - - - - - - - - - - - - - - - - ",
"- - - - - - - - - - - - - - - - - - - > 2 3 < < - - - - - - - - - - - - - - - - - - - ",
"- - - - - - - - - - - - - - - - - - - > 2 3 < < - - - - - - - - - - - - - - - - - - - ",
"- - - - - - - - - - - - - - - - - - - > 2 3 < < - - - - - - - - - - - - - - - - - - - ",
"- - - - - - - - - - - - - - - - - - - > 2 3 < < - - - - - - - - - - - - - - - - - - - ",
"- - - - - - - - - - - - - - - - > - - < 2 3 2 < - - - - - - - - - - - - - - - - - - - ",
"- - - - - - - - - - - - - - - - > - - < 2 3 2 < - - - - - - - - - - - - - - - - - - - ",
"- - - - - - - - - - - - - - > - < < < < < > - - - - - - - - - - - - - - - - - - - - - ",
"- - - - - - - - - - - - - - > > < < < < < < - - - - - > > - - - - - - - - - - - - - - ",
"- - - - - - - - - - - - - - > > < < < 2 < < > > - > < < < < > - - - - - - - - - - - - ",
"- - - - - - - - - - - - - - > > 3 3 3 3 3 2 < < > < < < < < < > - - - - - - - - - - - ",
"- - - - - - - - - - - - - - - > 3 3 6 6 6 3 3 2 > < < < < < < > - - - - - - - - - - - ",
"- - - - - - - - - - - - - - - - 3 3 3 3 3 3 2 < - > < < < < > - - - - - - - - - - - - ",
"- - - - - - - - - - - - - - - - < < < < < < < - - - - > > - - - - - - - - - - - - - - ",
"- - - - - - - - - - - - - - - - - - - - - - - * - - - - - - - - - - - - - - - - - - - ",
"- - - - - - - - @ * = * * * = > - @ * 9 O q @ < < @ * - * > 2 * - - - - - - - - - - - ",
"- - - - - - - - - - - - * * $ $ = 3 * @ r h . < = * < 3 * * - * - - - - - - - - - - - ",
"- - - - - - - - - - - > < < < - * 3 @ * } | 0 @ * - < - * $ - < - - - - - - - - - - - ",
"- - - - - - - - = * * = > < > - * = < 6 &.:.P h > - O . = < < 3 - - - - - - - - - - - ",
"- - - - - - - - < - * * * - > < 9 3 v 9 D R ( _ z j 9 0 b z 3 - - - - - - - - - - - - ",
"- - - - - - - - - - - - 3 s n S P b N q 9 x G W Q ] ! ! [ I q - - - - - - - - - - - - ",
"- - - - - - - - * - - < 0 n I _ @.R s < q j < z O.2.1.=.$.I 3 < - - - - - - - - - - - ",
"- - - - - - - - = - - * - s H ( ,.| 9 . * < . v @.5.5.-.| n . < - - - - - - - - - - - ",
"= - - - - = * * - * * < - - s S :.| q 9 < . S K $.( X.$.K 2 > < - - = * = - - - - - - ",
"= - - - - - = * = * = - - > 9 s ' ^ M v j v | >.] [ W b 9 - * - - - - = = - - - - - - ",
"- - - - - - - - - - - - < 6 2 = 3 0 s V I ! _ ( n G s @ q t @ $ - - - - - - - - - - - ",
"- - - - - - - - > 2 < - 9 s 0 $ q * $ . 3 j 6 * 0 = . 0 S j $ = - - - > > - - - - - - ",
"- - - = - - < < > < - * 6 h s 2 3 2 9 $ . > - 3 q . 6 S v < - < - - < < < < - - - - - ",
"- - = = - - < 2 - - * * < q t t @ * = 3 6 2 < - * 0 P I 2 . 3 * - > < 3 2 < > - - - - ",
"- - = = - > < 3 > - - - - > 9 s G N * 9 i 6 x s h I ( V - = 3 $ - < < 3 3 < < - - - - ",
"- - = * - > 2 3 3 > < 6 > @ < h P _ ! :.<.O.4.5.$.:.R - @ - * 2 - < 2 3 3 2 < - - - - ",
"- - - - - - > < 2 3 3 3 < - - - h I =.8.3.=.-.3.$.W d < < 2 < - 6 3 2 < < > > > = = = ",
"- - - - - - > < < 3 9 6 < - - > $ 9 N K C s t v n t - - 2 3 < > 6 3 2 < > - - - - - - ",
"- - - - - - > < > 6 q q 3 - - > - * - 3 < @ O = < - - 3 9 < - - 3 3 3 < > - - - - - - ",
"- - - - - - > < - 6 t r 3 - - < < @ . * < < 2 9 t 9 6 9 3 > - < 3 3 2 < - - - - - - - ",
"- - - - - - > < - 3 q q 6 < > < < * @ = > < < < r 2 - > 2 < < 3 3 3 < > - - - - - - - ",
"- - - - - - > < - < 6 9 9 3 < < < 2 3 6 9 3 3 3 3 = $ < 9 9 < - 3 2 < > - - - - - - - ",
"- - - - - - > < > - > 2 6 9 3 < $ * - - < < 2 < 3 - - 9 r 9 - $ 3 2 < - - - - - - - - ",
"- - - - - - > < < - * - 3 9 3 < < < - = - < 2 < - * = 3 9 3 < > 3 < < - - - = = > > > ",
"- - - - - - - - - - - - - - - - - - - - - - - - = - < 3 9 9 < - < > - - = = - - > > > ",
"- - - - - - - - - - - - - - - - - - - - - - - - = - < 3 9 6 < - < > - - = = - - > > > ",
"- - - - - - - - - - - - - - - - - - - - - - - - = - > 3 6 3 < - > > - - - - - - > > > ",
"- - - - - - - - - - - - - - - - - - - - - - - - = - - < 3 3 < - > - - - - - - - > > > ",
"- - - - - - - - - - - - - - - - - - - - - - - - - - - < 3 3 < - - - - - - - - > > > > ",
"- - - - - - - - - - - - - - - - - - - - - - - - - = - < 3 3 < - - - - - - - > > > > > ",
"- - - - - - - - - - - - - - - - - - - - - - - - - = - - 2 3 < - - - = = - - > < > > < ",
"- - - - - - - - - - - - - - - - - - - - - - - - - = = - < 3 < - - - = = - - > < > < < ",
"- - - > - - - - - - - - - - - - - - - - - - - - - - - - - - - - - - - - - - - - - - - ",
"- - - > - - - - - - - - - - - - - - - - - - - - - - - - - > - - - - - - - - - - - - - ",
"- - - - - - - - - - - - - - - - - - - - - - - - - - - - - > > > - - - - - - - - - - - ",
"- - - - - - - - - - - - - - - - - - - - - - - - - - - - - > > > - - - - - - - - - - - ",
"- - - - - - - - - - - - - - - - - - - - - - - - - - - - - - - > - - - - - - - - - - - ",
"- - - - - - - - - - - - - - - - - - - - - - - - - - - - - - - - - - - - - - - - - - - ",
"- - - - - - - - - - - - - - - - - - - - - - - - - - - - - - - - - - - - - - - - - - - ",
"- - - - > - - - - - - - - - - - - - - - - - - - - - - - - - - - - - - - - - - - - - - "
};
